<svg width="1360" height="240" xmlns="http://www.w3.org/2000/svg">

    <style>
        .light-text {
        fill: #FFFFFF;
        }
        .dark-text {
        fill: #000000;
        }
        .name-text {
        font: bold 30px monospace;
        opacity: 0.5;
        }
        .hex-text {
        font: bold 20px monospace;
        opacity: 0.5;
        }
    </style>

    <g>
        <svg class="light-text" id="bg0" width="170" height="120" y="0" x="0">
            <rect width="100%" height="100%" fill="#232628"/>
            <text class="name-text" x="50%" y="50%" text-anchor="middle">bg0</text>
            <text class="hex-text" x="50%" y="80%" text-anchor="middle">#232628</text>
        </svg>

        <svg class="dark-text" id="magenta" width="170" height="120" y="0" x="170">
            <rect width="100%" height="100%" fill="#050506"/>
            <text class="name-text" x="50%" y="50%" text-anchor="middle">bg1</text>
            <text class="hex-text" x="50%" y="80%" text-anchor="middle">TBD</text>
        </svg>

        <svg class="dark-text" id="violet" width="170" height="120" y="0" x="340">
            <rect width="100%" height="100%" fill="#050506"/>
            <text class="name-text" x="50%" y="50%" text-anchor="middle">bg2</text>
            <text class="hex-text" x="50%" y="80%" text-anchor="middle">TBD</text>
        </svg>

        <svg class="dark-text" id="blue" width="170" height="120" y="0" x="510">
            <rect width="100%" height="100%" fill="#050506"/>
            <text class="name-text" x="50%" y="50%" text-anchor="middle">bg3</text>
            <text class="hex-text" x="50%" y="80%" text-anchor="middle">TBD</text>
        </svg>

        <svg class="dark-text" id="cyan" width="170" height="120" y="0" x="680">
            <rect width="100%" height="100%" fill="#050506"/>
            <text class="name-text" x="50%" y="50%" text-anchor="middle">fg3</text>
            <text class="hex-text" x="50%" y="80%" text-anchor="middle">TBD</text>
        </svg>

        <svg class="dark-text" id="green" width="170" height="120" y="0" x="850">
            <rect width="100%" height="100%" fill="#050506"/>
            <text class="name-text" x="50%" y="50%" text-anchor="middle">fg2</text>
            <text class="hex-text" x="50%" y="80%" text-anchor="middle">TBD</text>
        </svg>

        <svg class="dark-text" id="yellow" width="170" height="120" y="0" x="1020">
            <rect width="100%" height="100%" fill="#838E8F"/>
            <text class="name-text" x="50%" y="50%" text-anchor="middle">fg1</text>
            <text class="hex-text" x="50%" y="80%" text-anchor="middle">#838E8F</text>
        </svg>

        <svg class="dark-text" id="orange" width="170" height="120" y="0" x="1190">
            <rect width="100%" height="100%" fill="#FDF9F3"/>
            <text class="name-text" x="50%" y="50%" text-anchor="middle">fg0</text>
            <text class="hex-text" x="50%" y="80%" text-anchor="middle">#FDF9F3</text>
        </svg>
    </g>

    <g>
        <svg class="dark-text" id="red" width="170" height="120" y="120" x="0">
            <rect width="100%" height="100%" fill="#F92672"/>
            <text class="name-text" x="50%" y="50%" text-anchor="middle">red</text>
            <text class="hex-text" x="50%" y="80%" text-anchor="middle">#F92672</text>
        </svg>

        <svg class="dark-text" id="magenta" width="170" height="120" y="120" x="170">
            <rect width="100%" height="100%" fill="#FD5FF0"/>
            <text class="name-text" x="50%" y="50%" text-anchor="middle">magenta</text>
            <text class="hex-text" x="50%" y="80%" text-anchor="middle">#FD5FF0</text>
        </svg>

        <svg class="dark-text" id="violet" width="170" height="120" y="120" x="340">
            <rect width="100%" height="100%" fill="#AE81FF"/>
            <text class="name-text" x="50%" y="50%" text-anchor="middle">violet</text>
            <text class="hex-text" x="50%" y="80%" text-anchor="middle">#AE81FF</text>
        </svg>

        <svg class="dark-text" id="blue" width="170" height="120" y="120" x="510">
            <rect width="100%" height="100%" fill="#66D9EF"/>
            <text class="name-text" x="50%" y="50%" text-anchor="middle">blue</text>
            <text class="hex-text" x="50%" y="80%" text-anchor="middle">#66D9EF</text>
        </svg>

        <svg class="dark-text" id="cyan" width="170" height="120" y="120" x="680">
            <rect width="100%" height="100%" fill="#A1EFE4"/>
            <text class="name-text" x="50%" y="50%" text-anchor="middle">cyan</text>
            <text class="hex-text" x="50%" y="80%" text-anchor="middle">#A1EFE4</text>
        </svg>

        <svg class="dark-text" id="green" width="170" height="120" y="120" x="850">
            <rect width="100%" height="100%" fill="#A6E22E"/>
            <text class="name-text" x="50%" y="50%" text-anchor="middle">green</text>
            <text class="hex-text" x="50%" y="80%" text-anchor="middle">#A6E22E</text>
        </svg>

        <svg class="dark-text" id="yellow" width="170" height="120" y="120" x="1020">
            <rect width="100%" height="100%" fill="#E6DB71"/>
            <text class="name-text" x="50%" y="50%" text-anchor="middle">yellow</text>
            <text class="hex-text" x="50%" y="80%" text-anchor="middle">#E6DB71</text>
        </svg>

        <svg class="dark-text" id="orange" width="170" height="120" y="120" x="1190">
            <rect width="100%" height="100%" fill="#DF971F"/>
            <text class="name-text" x="50%" y="50%" text-anchor="middle">orange</text>
            <text class="hex-text" x="50%" y="80%" text-anchor="middle">#DF971F</text>
        </svg>
    </g>

</svg>