<svg width="1440px" height="240px" xmlns="http://www.w3.org/2000/svg">

  <style>
    text {
    font-family: consolas;
    font-weight: bold;
    dominant-baseline: middle;
    text-anchor: middle;
    }

    .light-text {
    fill: #FFFFFF;
    }

    .dark-text {
    fill: #000000;
    }

    .name-text {
    font-size: 34px;
    opacity: 0.5;
    }

    .hex-text {
    font-size: 22px;
    opacity: 0.5;
    }
  </style>

  <g>
    <svg class="light-text" width="12.5%" height="50%" x="0%" y="0%">
      <rect width="100%" height="100%" fill="#1E1F22"/>
      <text class="name-text" x="50%" y="50%">bg0</text>
      <text class="hex-text" x="50%" y="80%">#1E1F22</text>
    </svg>

    <svg class="light-text" width="12.5%" height="50%" x="12.5%" y="0%">
      <rect width="100%" height="100%" fill="#26282E"/>
      <text class="name-text" x="50%" y="50%">bg1</text>
      <text class="hex-text" x="50%" y="80%">#26282E</text>
    </svg>

    <svg class="light-text" width="12.5%" height="50%" x="25%" y="0%">
      <rect width="100%" height="100%" fill="#2E3135"/>
      <text class="name-text" x="50%" y="50%">bg2</text>
      <text class="hex-text" x="50%" y="80%">#2E3135</text>
    </svg>

    <svg class="light-text" width="12.5%" height="50%" x="37.5%" y="0%">
      <rect width="100%" height="100%" fill="#3E4145"/>
      <text class="name-text" x="50%" y="50%">bg3</text>
      <text class="hex-text" x="50%" y="80%">#3E4145</text>
    </svg>

    <svg class="light-text" width="12.5%" height="50%" x="50%" y="0%">
      <rect width="100%" height="100%" fill="#1E1F22"/>
    </svg>

    <svg class="light-text" width="12.5%" height="50%" x="62.5%" y="0%">
      <rect width="100%" height="100%" fill="#5C6370"/>
      <text class="name-text" x="50%" y="50%">fg2</text>
      <text class="hex-text" x="50%" y="80%">#5C6370</text>
    </svg>

    <svg class="dark-text" width="12.5%" height="50%" x="75%" y="0%">
      <rect width="100%" height="100%" fill="#838E8F"/>
      <text class="name-text" x="50%" y="50%">fg1</text>
      <text class="hex-text" x="50%" y="80%">#838E8F</text>
    </svg>

    <svg class="dark-text" width="12.5%" height="50%" x="87.5%" y="0%">
      <rect width="100%" height="100%" fill="#FDF9F3"/>
      <text class="name-text" x="50%" y="50%">fg0</text>
      <text class="hex-text" x="50%" y="80%">#FDF9F3</text>
    </svg>
  </g>

  <g>
    <svg class="dark-text" width="12.5%" height="50%" x="0" y="50%">
      <rect width="100%" height="100%" fill="#F92672"/>
      <text class="name-text" x="50%" y="50%">red</text>
      <text class="hex-text" x="50%" y="80%">#F92672</text>
    </svg>

    <svg class="dark-text" width="12.5%" height="50%" x="12.5%" y="50%">
      <rect width="100%" height="100%" fill="#FD5FF0"/>
      <text class="name-text" x="50%" y="50%">magenta</text>
      <text class="hex-text" x="50%" y="80%">#FD5FF0</text>
    </svg>

    <svg class="dark-text" width="12.5%" height="50%" x="25%" y="50%">
      <rect width="100%" height="100%" fill="#AE81FF"/>
      <text class="name-text" x="50%" y="50%">violet</text>
      <text class="hex-text" x="50%" y="80%">#AE81FF</text>
    </svg>

    <svg class="dark-text" width="12.5%" height="50%" x="37.5%" y="50%">
      <rect width="100%" height="100%" fill="#6593EF"/>
      <text class="name-text" x="50%" y="50%">blue</text>
      <text class="hex-text" x="50%" y="80%">#6593EF</text>
    </svg>

    <svg class="dark-text" width="12.5%" height="50%" x="50%" y="50%">
      <rect width="100%" height="100%" fill="#66D9EF"/>
      <text class="name-text" x="50%" y="50%">cyan</text>
      <text class="hex-text" x="50%" y="80%">#66D9EF</text>
    </svg>

    <svg class="dark-text" width="12.5%" height="50%" x="62.5%" y="50%">
      <rect width="100%" height="100%" fill="#A6E22E"/>
      <text class="name-text" x="50%" y="50%">green</text>
      <text class="hex-text" x="50%" y="80%">#A6E22E</text>
    </svg>

    <svg class="dark-text" width="12.5%" height="50%" x="75%" y="50%">
      <rect width="100%" height="100%" fill="#E6DB71"/>
      <text class="name-text" x="50%" y="50%">yellow</text>
      <text class="hex-text" x="50%" y="80%">#E6DB71</text>
    </svg>

    <svg class="dark-text" width="12.5%" height="50%" x="87.5%" y="50%">
      <rect width="100%" height="100%" fill="#FD971F"/>
      <text class="name-text" x="50%" y="50%">orange</text>
      <text class="hex-text" x="50%" y="80%">#FD971F</text>
    </svg>
  </g>

</svg>
