<svg width="1440px" height="240px" xmlns="http://www.w3.org/2000/svg">

  <style>
    text {
    font-family: consolas;
    font-weight: bold;
    dominant-baseline: middle;
    text-anchor: middle;
    }

    .light-text {
    fill: #FFFFFF;
    }

    .dark-text {
    fill: #000000;
    }

    .name-text {
    font-size: 34px;
    opacity: 0.5;
    }

    .hex-text {
    font-size: 22px;
    opacity: 0.5;
    }
  </style>

  <g>
    <svg class="light-text" width="12.5%" height="50%" x="0%" y="0%">
      <rect width="100%" height="100%" fill="#2B2D30"/>
      <text class="name-text" x="50%" y="50%">bg0</text>
      <text class="hex-text" x="50%" y="80%">#2B2D30</text>
    </svg>

    <svg class="light-text" width="12.5%" height="50%" x="12.5%" y="0%">
      <rect width="100%" height="100%" fill="#35373A"/>
      <text class="name-text" x="50%" y="50%">bg1</text>
      <text class="hex-text" x="50%" y="80%">#35373A</text>
    </svg>

    <svg class="light-text" width="12.5%" height="50%" x="25%" y="0%">
      <rect width="100%" height="100%" fill="#43454A"/>
      <text class="name-text" x="50%" y="50%">bg2</text>
      <text class="hex-text" x="50%" y="80%">#43454A</text>
    </svg>

    <svg class="light-text" width="12.5%" height="50%" x="37.5%" y="0%">
      <rect width="100%" height="100%" fill="#55575C"/>
      <text class="name-text" x="50%" y="50%">bg3</text>
      <text class="hex-text" x="50%" y="80%">#55575C</text>
    </svg>

    <svg class="light-text" width="12.5%" height="50%" x="50%" y="0%">
      <rect width="100%" height="100%" fill="#2B2D30"/>
    </svg>

    <svg class="light-text" width="12.5%" height="50%" x="62.5%" y="0%">
      <rect width="100%" height="100%" fill="#5C6370"/>
      <text class="name-text" x="50%" y="50%">fg2</text>
      <text class="hex-text" x="50%" y="80%">#5C6370</text>
    </svg>

    <svg class="dark-text" width="12.5%" height="50%" x="75%" y="0%">
      <rect width="100%" height="100%" fill="#838E8F"/>
      <text class="name-text" x="50%" y="50%">fg1</text>
      <text class="hex-text" x="50%" y="80%">#838E8F</text>
    </svg>

    <svg class="dark-text" width="12.5%" height="50%" x="87.5%" y="0%">
      <rect width="100%" height="100%" fill="#FDF9F3"/>
      <text class="name-text" x="50%" y="50%">fg0</text>
      <text class="hex-text" x="50%" y="80%">#FDF9F3</text>
    </svg>
  </g>

  <g>
    <svg class="dark-text" width="12.5%" height="50%" x="0" y="50%">
      <rect width="100%" height="100%" fill="#EB6288"/>
      <text class="name-text" x="50%" y="50%">red</text>
      <text class="hex-text" x="50%" y="80%">#EB6288</text>
    </svg>

    <svg class="dark-text" width="12.5%" height="50%" x="12.5%" y="50%">
      <rect width="100%" height="100%" fill="#EB8AE4"/>
      <text class="name-text" x="50%" y="50%">magenta</text>
      <text class="hex-text" x="50%" y="80%">#EB8AE4</text>
    </svg>

    <svg class="dark-text" width="12.5%" height="50%" x="25%" y="50%">
      <rect width="100%" height="100%" fill="#AB9DF2"/>
      <text class="name-text" x="50%" y="50%">violet</text>
      <text class="hex-text" x="50%" y="80%">#AB9DF2</text>
    </svg>

    <svg class="dark-text" width="12.5%" height="50%" x="37.5%" y="50%">
      <rect width="100%" height="100%" fill="#77A4E8"/>
      <text class="name-text" x="50%" y="50%">blue</text>
      <text class="hex-text" x="50%" y="80%">#77A4E8</text>
    </svg>

    <svg class="dark-text" width="12.5%" height="50%" x="50%" y="50%">
      <rect width="100%" height="100%" fill="#78DCE8"/>
      <text class="name-text" x="50%" y="50%">cyan</text>
      <text class="hex-text" x="50%" y="80%">#78DCE8</text>
    </svg>

    <svg class="dark-text" width="12.5%" height="50%" x="62.5%" y="50%">
      <rect width="100%" height="100%" fill="#A9DC76"/>
      <text class="name-text" x="50%" y="50%">green</text>
      <text class="hex-text" x="50%" y="80%">#A9DC76</text>
    </svg>

    <svg class="dark-text" width="12.5%" height="50%" x="75%" y="50%">
      <rect width="100%" height="100%" fill="#F4D966"/>
      <text class="name-text" x="50%" y="50%">yellow</text>
      <text class="hex-text" x="50%" y="80%">#F4D966</text>
    </svg>

    <svg class="dark-text" width="12.5%" height="50%" x="87.5%" y="50%">
      <rect width="100%" height="100%" fill="#EE9867"/>
      <text class="name-text" x="50%" y="50%">orange</text>
      <text class="hex-text" x="50%" y="80%">#EE9867</text>
    </svg>
  </g>

</svg>
